<svg xmlns="http://www.w3.org/2000/svg" id="Layer_1" data-name="Layer 1" viewBox="0 0 612.329 361.3097"><g id="_01Mvf3.tif" data-name="01Mvf3.tif"><g><path d="M39.9266,213.7145c4.4468-39.2357,6.8575-78.8545,11.2023-118.1478.1049-.9489.173-2.7407.5778-3.4539L155.012,11.2845l377.7707,36.0134-28.6767,303.4917h-1.1201l-5.2656-.6709-371.8449-34.753c-28.6379-32.9939-56.5475-66.628-85.1615-99.6406-.2276-.2626-.4809-.5-.7872-.6668v-1.3439ZM525.8375,53.3445L159.23,18.1726l-1.9272.1073L57.7332,95.2264l-11.4782,117.2025,82.9905,96.2076,369.485,35.211,27.1069-290.5029Z"></path><path d="M278.5139,187.2845l-4.2584,48.043c-.3737,3.5704-1.5993,6.2829-.2653,9.8983,2.5195,6.8283,15.0992,7.932,20.2071,3.768,4.2827-3.4912,3.7568-8.5247,4.2549-13.4403,1.5463-15.2621,2.9517-30.5447,4.4817-45.8063.2562.0962.4853.2204.7735.2322,14.9236.6121,29.9779,3.0389,44.8149,4.4712,15.9567,1.5405,31.9478,2.754,47.905,4.2919l12.4707,24.6025,16.2757-21.6885,50.4799,4.7776-47.0156,46.6173-3.8386,38.3852-44.3542-4.2581,3.483-37.8648-37.4248-54.6362-5.5152,56.974c-4.9149,22.7783-30.0562,29.186-50.4992,28.5942-24.9191-.7214-57.6669-9.5661-60.8295-38.8668l5.4904-57.6915,43.3638,3.5974Z"></path><path d="M198.0898,122.11l8.0443,3.9358c15.3694,9.1119,16.3031,28.4225-1.1743,35.9686-14.6632,6.331-32.927,4.0847-48.4273,2.6478l-48.5035-4.9255,8.2916-89.3678,61.0425,6.0494c11.4649,1.4725,37.046,7.907,38.4211,22.0611,1.1463,11.799-6.5126,20.9908-17.6944,23.6307ZM155.0746,108.8914c5.0813,1.1882,19.2854,2.5674,19.2858-5.4865.0003-5.9103-8.8416-6.4725-13.1267-6.8292l-5.0392.2207-1.1198,12.0949ZM152.4109,142.4661c4.5961.855,9.5107,1.4635,14.1994,1.1407,3.7443-.2578,9.2588-1.7031,9.7223-6.1803.8974-8.6683-14.7711-9.3467-20.4708-9.4979-.8309-.022-1.8603-.6058-2.5888.1497l-.8621,14.3879Z"></path><path d="M207.2736,224.6868c8.6512,2.8325,18.5609,10.0694,19.4608,19.8537,1.1979,13.0238-8.4423,19.3396-19.726,22.1045-13.6361,3.3413-27.5101,1.6517-41.2909.3756-16.2515-1.505-32.4678-3.5467-48.7272-4.9269l8.5166-89.3687,60.8171,6.0516c12.3675,1.7394,38.4356,7.9396,38.6555,23.8614.1366,9.8877-5.7835,17.3999-14.7386,20.8751-.9535.37-2.2638.5111-2.9673,1.1737ZM163.837,211.003c4.7963,1.039,16.1076,2.3214,18.6081-3.1852.801-1.7639.5858-3.9962-.6191-5.506-2.9452-3.6902-12.5446-3.8432-16.8815-3.3668l-1.1076,12.0579ZM160.905,244.6182c5.7401.9038,18.2621,2.7814,22.6201-1.8998,1.7736-1.9051,1.8593-5.1933.3176-7.2582-3.9219-5.253-15.6878-5.3793-21.6736-5.6284l-1.2641,14.7864Z"></path><polygon points="311.6553 89.6423 309.4295 114.4929 271.7816 111.0019 270.8952 119.196 305.1731 122.33 303.1569 145.1781 268.8793 142.0402 267.9942 150.903 306.5171 154.8074 304.2764 178.5509 220.2977 170.4546 228.3257 81.6648 311.6553 89.6423"></polygon><path d="M323.9942,149.4337c.3561-.2419,1.6962,1.1944,2.0303,1.4365,8.0399,5.8266,27.6607,12.9478,37.2314,9.4868,4.2204-1.5262,4.0113-4.1423.4588-6.405-3.5743-2.2766-8.3981-2.7921-12.4418-3.9112-12.0474-3.3341-29.5546-7.4604-33.2217-21.4359-4.9521-18.8724,15.4482-29.9303,30.8033-33.2656,11.4398-2.4849,23.0575-1.9147,34.5075.2212,10.3535,1.9314,20.9675,5.4511,29.7858,11.2209l-14.4455,20.6976c-5.9938-4.1713-13.3369-7.2735-20.6422-8.2515-3.6529-.4891-10.6992-.8855-13.7334,1.4359-3.9355,3.0109,3.844,5.7296,5.9813,6.5387,8.3248,3.1515,17.4802,4.605,25.7702,7.6079,18.6858,6.7688,21.9759,29.7146,5.8482,41.5876-18.0031,13.2538-48.4687,10.5183-68.9768,5.1775-8.3266-2.1684-16.8296-5.15-24.413-9.1842l15.4577-22.9572Z"></path><polygon points="511.9482 108.8912 509.2367 137.7618 484.6147 135.5445 479.0164 195.5733 434.4201 191.4428 439.1402 131.0651 414.7187 128.8277 417.4303 99.9571 511.9482 108.8912"></polygon><path d="M75.7205,142.3273c18.3668-2.0711,26.2206,21.5198,11.2334,30.7172-13.051,8.0091-28.8679-3.896-24.9592-18.6827,1.6065-6.0775,7.4229-11.3238,13.7259-12.0345ZM76.6173,148.3753c-13.1861,1.5921-11.7208,22.7016,3.2736,20.9674,12.7203-1.4712,11.2772-22.7242-3.2736-20.9674Z"></path><path d="M482.5492,208.6267c9.5629-1.0072,10.7437,13.2559,1.7072,14.246-9.5162,1.0427-10.9108-13.2767-1.7072-14.246ZM482.3166,209.9605c-6.6242,1.1296-5.6793,12.8792,2.1339,11.54,6.5905-1.1296,5.6264-12.8634-2.1339-11.54Z"></path><path d="M486.184,219.9837c-2.1776.8536-2.3409-3.5481-3.4714-3.8078-.2328-.0535-.5336.0227-.7849.0015l-.2233,3.3618h-1.346s.6726-8.0654.6726-8.0654c1.9381.2393,5.7375-.23,5.7881,2.5716.0298,1.6507-1.152,1.9934-2.4217,2.4675l1.7867,3.4709ZM482.154,215.056c1.5968.2879,3.6316.5044,3.0235-1.7927l-2.8016-.6696-.222,2.4623Z"></path></g></g></svg>