<svg xmlns="http://www.w3.org/2000/svg" id="Layer_1" data-name="Layer 1" viewBox="0 0 612.329 361.3097"><g id="wX2FDX"><g><polygon points="345.1089 124.9743 385.5987 181.8455 385.5987 124.9743 428.8703 124.9743 428.8703 236.244 385.9078 236.244 346.0362 180.6092 346.0362 236.244 302.1464 236.244 302.1464 124.9743 345.1089 124.9743"></polygon><path d="M173.1674,223.045c-19.3888-20.7284-18.881-68.8249,3.2009-87.5436,22.9522-19.4564,78.2912-19.6164,99.812,2.1485,19.3979,19.6179,19.0755,65.7141.3197,85.62-21.3526,22.6619-82.0181,22.5622-103.3326-.2249ZM213.3504,208.825c6.0476,5.6514,18.1228,5.2861,23.915-.6813,8.8743-9.1427,8.5495-40.8067,2.575-51.4625-5.9763-10.6592-22.5193-11.2452-29.0846-1.0075-6.9406,10.8229-7.2314,43.969,2.5946,53.1513Z"></path><path d="M40.0445,124.9743c21.9338.8067,44.6267-1.0691,66.4782-.0255,15.5043.7405,32.4006,3.9985,41.0993,18.2445,12.9989,21.2886-3.5714,36.4773-21.032,46.3763l36.4694,46.6743h-51.3077l-27.8174-41.417v41.417h-43.8897v-111.2697ZM83.9342,179.3728c6.0839-4.103,21.6129-8.787,23.219-16.6594,1.164-5.7054-3.0463-10.5321-8.2145-12.2539-1.1522-.3838-5.1199-1.3768-6.0411-1.3768h-8.9634v30.2901Z"></path><path d="M572.2845,236.244h-12.0542l-39.5625-95.2037c-1.0124,2.2635-3.0169,4.8715-2.5125,7.412l36.2024,87.7917h-12.0542l-30.9082-73.5679-2.6806,6.9701,27.7163,66.5978h-12.9815l-21.6283-51.3062-21.3341,51.3062h-47.9078l45.7383-110.9665,46.7119-.3378,1.8248.6479,45.4303,110.6563Z"></path></g></g></svg>