<svg xmlns="http://www.w3.org/2000/svg" id="Layer_1" data-name="Layer 1" viewBox="0 0 1062.22 361.31"><g id="c6wSJ6.tif"><g><path d="M439.42,345.57h-11.4c.7-2.2,2.18-3.46.86-5.81l-56.87-56.88c-2.07-1.07-3.87.28-5.81.86v-11.1l23.57-23.4c2.17-1.61,4.32-2.82,6.61-.62,3.72,3.58-3.68,7.98.73,11.57l54.79,54.76c3.55,3.74,7.22-2.46,10.8,0,2.39,1.65,2.01,4.35.45,6.45-7.35,7.84-15.71,15.07-22.96,22.95-.34.37-.75.62-.74,1.21Z"></path><path d="M539.66,345.57h-6.6c1.03-2.1.59-2.82-.75-4.51l-29.56-29.56c-2.39-3.2-4.94,1.17-7.06-.74-1.71-1.53-.17-3.21.9-4.51,3.73-4.52,9.18-8.55,13.04-13.06l.76-.45,40.96,40.68-11.7,12.15Z"></path><path d="M696.03,182.61v6.3l-13.52,13.34c-1.33.93-3.71.62-3.89-1.22-.2-2.09,2.32-2.57.3-5.37l-35.69-35.97,13.29-13.07,36.05,35.99c1.12,1.11,2.2.29,3.45,0Z"></path><path d="M696.03,71.86v16.81l-14,13.78-5.52-5.53c5.95-7.83,7.1-17.46,3.92-26.71-.75-2.19-2.96-5.81-2.65-8.02s3.59-4.23,5.5-2.64l12.75,12.31Z"></path><path d="M638.7,15.74l12.68,13.28c1.08,1.8-1.56,5.07-3.25,5.31-1.96.29-5.75-2.17-7.86-2.91-8.98-3.18-17.91-1.63-25.44,4.07l-5.53-5.76,13.78-14h15.61Z"></path><path d="M559.77,113.28l38.89,72.03c.23.94-2.04,2.34-2.58,3.16l-83.74-41.42c-1.37-.53-5.09-1.73-6.41-1.64-2.39.16-5.95,5.98-8.96,1.41-1.61-2.44-.28-4.06,1.27-6.08l25.08-24.76,40.35,19.22-20.7-38.87,25.2-25.51c3.1-3.32,8.62-2.23,7.73,2.93-.34,1.98-2.55,3.9-1.49,6.14,18.12,19.21,37.35,37.5,55.88,56.36,3.98,3.13,4.69.17,8.03-.38,4.41-.73,5.99,4.14,3.24,7.14l-28.36,28.36c-2.81,2.7-7.81.9-7.08-3.17s3.77-4.1.16-8.54l-46.51-46.38Z"></path><path d="M429.44,210.89c2.18-.36,4.32.63,4.75,2.92.59,3.07-3.72,5.87-1.07,8.86l55.81,55.83c3.55,3.42,7.37-3.21,10.96.15,1.79,1.68,1.27,4.61-.29,6.3-9.58,8.22-18.27,20.07-27.91,27.92-1.97,1.6-4.18,2.6-6.32.6-3.75-3.5,2.97-7.32-.14-10.96l-25.66-25.66-8.44,8.38-5.52-5.53,8.09-8.66-23.83-23.91c-3.66-4.2-7.34,2.81-11.12-.29-2.4-1.98-1.36-4.82.3-6.91,7.46-9.4,19.43-17.95,27.31-27.31.85-.73,1.95-1.53,3.08-1.72Z"></path><path d="M604.68,34.37l72.72,72.5-25.63,25.93c-1.82,2.06-6.18,2.22-7.13-.69-1.19-3.65,2.55-5.32,1.34-8.85-18.58-19.37-37.7-38.39-57-57.05-2.73-2.07-5.59,1.73-8.28,1.4-2.93-.36-4.12-4.01-2.58-6.35l26.55-26.89Z"></path><path d="M490.38,160.79c19.45-1.26,38.47,12.11,49.53,27.13,13.7,18.61,15.89,41.28.2,59.51l-5.49-5.59c1.66-4.34,1.78-7.39-1.25-11.07l-52.68-52.66c-3.61-2.82-6.63-2.29-10.74-.95l-5.29-5.25c-.1-.58,2.87-2.62,3.48-3.05,6.46-4.57,14.29-7.56,22.24-8.07Z"></path><path d="M460.02,176.33l5.47,5.29c-.98,3.34-1.82,5.79-.12,9.11,17.41,18.71,36.12,36.33,54.04,54.6,3.52,2.75,6.74,2.52,10.73.95.36.09,4.98,4.7,5.32,5.21.28.42.38.14,0,.6-.74.92-5.09,3.73-6.33,4.47-15.46,9.21-32.39,7.65-47.49-1.38-26.78-16.03-45.38-51.89-21.62-78.85Z"></path><path d="M617.4,222.82c2.95,8.71-2.67,16.14-8.56,21.9l-3.12-3.19c1.36-2.19,1.57-3.95.22-6.21-1.25-2.1-10.81-11.6-12.93-12.88-2.41-1.45-3.91-1.35-6.33.04l-2.91-3.12,3.78-3.74c5.75-5.1,13.53-7.51,20.64-3.55l3.81,2.64c-4.19-7.96-4.19-17.14.47-24.88.33-.55,2.17-3.42,2.66-3.32l2.83,2.91c-.1,1.74-1.04,3.12-.07,4.85l30.88,31.25c2.78,1.94,4.43.03,5.64.34.36.09,2.95,2.73,2.89,3.07-12.65,11.44-29.68,5.23-39.89-6.11Z"></path><path d="M580.93,221.93l35.26,35.26c3.56,2.88,3.16.21,5.86.29,1.94.06,2.57,2.57,1.35,3.91l-16.43,16.29c-1.02.9-3.04-.35-3.33-1.35-.45-1.56,1.55-2.98.57-4.45l-31.52-31.5c-1.79-1.88-3.57.52-5.55.15s-1.56-3.19-.46-4.35l14.25-14.25Z"></path><path d="M547.62,255.24l40.96,40.96-14.39,14.41c-1.94,1.95-4.77.83-4.14-2.04.27-1.23,1.52-2,.55-3.68l-31.22-31.2c-1.79-1.88-3.57.52-5.55.15s-1.55-3.21-.46-4.35l14.25-14.25Z"></path><path d="M649.24,182.86c14.32,8.91,23.83,28.97,10.88,43.24-.34.06-2.97-2.53-3.07-2.89-.31-1.22,1.6-2.87-.34-5.64l-31.21-30.91c-1.75-1-3.14-.04-4.89.11l-2.91-2.83c-.11-.51,3.09-2.54,3.69-2.88,6.23-3.59,12.8-4.25,19.71-2.35l-8.11-8.55,7.4-7.63c.33-.06,3.28,2.83,3.37,3.2.15.6-.28,1.13-.23,1.7.18,2.31.97,4.63,2.02,6.69,1.51,2.97,4.82,5.29,3.69,8.76Z"></path><path d="M504.47,115.76c.96.91.63,2.27-.06,3.24-3.61,5.02-11.19,10.06-15.16,15.16-1.43,1.23-3.56.88-3.63-1.22-.05-1.32,1.25-2.54.87-3.83-.06-.21-1.44-1.82-1.74-2.17-3.5-4.09-8.23-7.83-11.92-11.81-1.08-.28-3.58,3.51-4.59,4.04-.61.31-3.15-2.27-2.97-2.96.22-.82,3.55-3.16,4.04-4.11.12-.23.2-.37,0-.6-4.03-3.38-7.68-8.51-11.73-11.7-3.47-2.73-3.83.32-6.16-.44-1.99-.65-1.06-2.89-.14-4.08,2.24-2.91,11.35-12.01,14.26-14.26,1.44-1.11,3.97-1.78,4.21.64.2,2.02-2.21,2.47.01,5.36,9.62,8.36,18.35,20.08,28.05,28.08.62.51,1.27,1.17,2.11,1.22,1.35.08,3.22-1.83,4.58-.55Z"></path><path d="M447.44,99.54c2.07-.48,3.17.67,2.72,2.72-.32,1.49-1.61,1.71-.23,3.67l30,29.74c1.29.54,2.77-1.07,3.95-.93,1.8.21,2.35,2.61,1.02,3.76-5.09,4.23-9.76,10.87-14.85,14.86-1.01.79-1.75,1.33-2.98.57-2.43-1.51.64-3.56-.16-5.54l-29.56-29.86c-2.05-1.95-3.66,1.47-5.71,0-1.54-1.11-.8-2.54.14-3.75,3.85-4.97,10.46-9.58,14.56-14.55.32-.31.68-.58,1.12-.68Z"></path><path d="M484.03,62.58l38.52,38.24-14.48,14.33c-1.62.84-3.39-.44-3.11-2.18.18-1.11,1.46-2.13.93-3.28l-29.55-29.89c-1.81-1.89-3.24.52-5.25.15-1.66-.31-1.77-2.66-.76-3.75l13.7-13.63Z"></path><path d="M418.33,128.32c.35-.09.61,0,.85.25l33.58,33.65c1.53.9,2.86-.79,4.52-.64s2.16,2.31,1.05,3.48l-15.83,15.69c-.95.75-2.71,0-3.02-1.04-.51-1.71,1.44-2.87.71-4.6l-34.06-34.39,12.19-12.38Z"></path><path d="M527,282.93c13.38-1.38,29.85,11.26,33.05,24.09,2.13,8.55.19,17.58-6.17,23.81l-3.06-2.87c1.34-2.55,1.49-4.07.01-6.62-8.49-8.36-17.01-18.81-26.01-26.51-2.01-1.72-3.76-3.14-6.59-2.67-.8.13-1.68,1.01-2.36.84l-2.89-2.85c-.07-.38,1.82-1.86,2.24-2.2,3.32-2.69,7.49-4.58,11.78-5.02Z"></path><path d="M586.08,192.91c1.95,1.95.8,4.39-.65,6.2-2.56,3.22-11.19,11.89-14.42,14.4-1.98,1.54-4.95,2.61-6.58,0-1.37-2.19.46-4.81.7-7.07.48-4.4-1.96-8.35-4.34-11.8l-33.44-33.64,21.59,10.37c8.22,6.55,18.33,23.29,30.16,21.71,2.36-.31,4.73-2.42,6.98-.17Z"></path><path d="M669.51,70.26c-3.11,3.08-7.5-1.16-10.85-2.3-4.09-1.4-7.04-1.5-11.05.27l-5.79-5.97c2.1-3.78,1.57-7.82.02-11.69-1.19-2.95-5.17-7.06-1.92-10.03,1.61-1.46,3.29-1.06,4.92.12,7.08,8.37,17.76,16.04,24.47,24.45,1.31,1.64,1.87,3.5.19,5.16Z"></path><path d="M590.6,269.09c.73-.11,1.62.56,2.19,1l10.78,10.85-12.43,12.71-3.08-3.14c2.83-3.94,3.83-8.27,2.79-13.07-.45-2.06-3.89-7.78-.24-8.35Z"></path><path d="M562.08,240.86l.85.25,10.78,10.84c1.03,1.02-.42,3.11-1.5,3.29-1.25.21-3.95-1.53-5.54-1.95-4.83-1.28-9.24-.3-13.31,2.52l-2.9-3.12,11.63-11.82Z"></path><path d="M524.28,75.51c.28-.05.48-.05.76,0,1.71.31,9.51,9.7,11.62,11.21l-11.85,11.85-2.82-2.89c2.33-3.37,3.36-6.84,2.89-10.98-.26-2.3-2.22-5.67-2.18-7.29.02-.87.71-1.75,1.58-1.9Z"></path><path d="M497.84,48.77c.36-.07.49.25.72.42,1.39,1.07,8.93,8.52,9.73,9.78.7,1.11.66,2.32-.44,3.13-1.47,1.08-4.26-1.05-5.99-1.5-4.54-1.17-8.72-.22-12.46,2.49-.61-.8-3.26-2.39-2.57-3.39l11.01-10.92Z"></path><path d="M666.52,136.42c.35-.09.61,0,.85.25l12.68,13.14c.43,2.2-1.21,3.5-3.33,3.02-1.61-.36-5.93-4.06-8.53-4.97-2.28-.8-4.29-.26-5.87-.73-.4-.12-3.22-2.63-3.22-3.09,0-.53,6.91-7.49,7.42-7.62Z"></path><path d="M568.4,258.29c1.13-.23,1.67.34,2.48,1,3.07,2.46,10.3,9.69,12.76,12.76.9,1.12,1.74,2.44.31,3.61-1.68,1.37-4.09-.85-5.78-1.44-2.2-.78-4.1-1.01-6.24.15l-3.36-3.36c1.16-2.14.92-4.04.15-6.24-.57-1.63-3.75-5.78-.31-6.47Z"></path><path d="M403.56,143c.52.78,2.38,2,2.7,2.7.37.82.04,1.9.19,2.81.41,2.42,1.2,4.47,2.42,6.58.76,1.31,2.78,3.46,3.11,4.7.63,2.35-1.66,3.7-3.63,2.72l-12.13-12.17,7.35-7.35Z"></path><path d="M428.17,118.39l12.16,12.15c1.18,1.32-.06,3.59-1.7,3.67-1.54.08-5.28-3.14-6.99-3.98-2.57-1.26-5.02-1.84-7.9-1.7l-2.91-2.79,7.35-7.35Z"></path><path d="M503.57,65.31c.8-.14,1.12.13,1.73.55,1.81,1.27,11.59,11.06,12.92,12.89.94,1.29.7,3.05-.93,3.32-2.08.34-4.97-2.96-8.62-2.33-.57.1-1.65.76-1.88.74-.24-.02-3.14-2.94-3.1-3.31.82-1.45.84-3.18.47-4.78-.4-1.73-4.02-6.48-.59-7.09Z"></path><path d="M682.46,322.84c11.58-1.06,13.2,17.6,1.41,18.52-11.57.91-13.22-17.44-1.41-18.52ZM682.76,324.33c-10.84.76-7.51,19.28,3.17,14.9,7.24-2.97,5.01-15.47-3.17-14.9Z"></path><path d="M684.47,326.66c3.63.54,3.81,5.58.15,6.15l2.7,4.65c-2.88.84-2.95-5.19-5.24-4.81-.25.04-.76.26-.76.46v4.35h-1.5v-10.8c1.45.15,3.25-.21,4.65,0ZM681.32,331.47c1.13-.1,3.91.49,4.21-1.05.55-2.88-2.26-2.2-4.21-2.25v3.3Z"></path></g></g></svg>